<svg width="192" height="40" viewBox="0 0 192 40" fill="none" xmlns="http://www.w3.org/2000/svg">
<path d="M31.2782 40H8.72184C3.92724 40 0 36.0776 0 31.2782V8.72184C0 3.92724 3.92242 0 8.72184 0H31.2782C36.0728 0 40 3.92242 40 8.72184V31.2782C40 36.0728 36.0728 40 31.2782 40Z" fill="#0044FF"/>
<path d="M12.7021 15.0199C14.5543 15.0199 16.0559 13.5183 16.0559 11.6661C16.0559 9.81381 14.5543 8.31226 12.7021 8.31226C10.8498 8.31226 9.34827 9.81381 9.34827 11.6661C9.34827 13.5183 10.8498 15.0199 12.7021 15.0199Z" fill="white"/>
<path d="M21.1348 14.4513C22.673 14.4513 23.92 13.2043 23.92 11.6661C23.92 10.1278 22.673 8.88086 21.1348 8.88086C19.5966 8.88086 18.3496 10.1278 18.3496 11.6661C18.3496 13.2043 19.5966 14.4513 21.1348 14.4513Z" fill="white"/>
<path d="M12.7021 23.3514C14.5543 23.3514 16.0559 21.8498 16.0559 19.9976C16.0559 18.1453 14.5543 16.6438 12.7021 16.6438C10.8498 16.6438 9.34827 18.1453 9.34827 19.9976C9.34827 21.8498 10.8498 23.3514 12.7021 23.3514Z" fill="white"/>
<path d="M21.1348 22.7828C22.673 22.7828 23.92 21.5358 23.92 19.9976C23.92 18.4594 22.673 17.2124 21.1348 17.2124C19.5966 17.2124 18.3496 18.4594 18.3496 19.9976C18.3496 21.5358 19.5966 22.7828 21.1348 22.7828Z" fill="white"/>
<path d="M12.7021 31.6829C14.5543 31.6829 16.0559 30.1814 16.0559 28.3291C16.0559 26.4768 14.5543 24.9753 12.7021 24.9753C10.8498 24.9753 9.34827 26.4768 9.34827 28.3291C9.34827 30.1814 10.8498 31.6829 12.7021 31.6829Z" fill="white"/>
<path d="M21.1348 31.1143C22.673 31.1143 23.92 29.8673 23.92 28.3291C23.92 26.7909 22.673 25.5439 21.1348 25.5439C19.5966 25.5439 18.3496 26.7909 18.3496 28.3291C18.3496 29.8673 19.5966 31.1143 21.1348 31.1143Z" fill="white"/>
<path d="M30.6517 11.6661C30.6517 10.4421 29.6591 9.44946 28.4351 9.44946C27.2112 9.44946 26.2185 10.4421 26.2185 11.6661C26.2185 12.89 27.2112 13.8827 28.4351 13.8827C29.6591 13.8827 30.6517 12.8948 30.6517 11.6661Z" fill="white"/>
<path d="M30.6517 28.3291C30.6517 27.1052 29.6591 26.1125 28.4351 26.1125C27.2112 26.1125 26.2185 27.1052 26.2185 28.3291C26.2185 29.5531 27.2112 30.5457 28.4351 30.5457C29.6591 30.5457 30.6517 29.5531 30.6517 28.3291Z" fill="white"/>
<g filter="url(#filter0_d_23_1135)">
<path d="M52.311 9.2182H70.2871V14.2923H57.5033V17.0775H68.9818V22.1516H57.5033V25.1247H70.7478V30.3096H52.311V9.2182Z" fill="black"/>
<path d="M73.2527 9.2182H79.0783L85.0816 25.3126H85.5758L91.5071 9.2182H97.1936L88.719 30.3096H81.8328L73.2527 9.2182Z" fill="black"/>
<path d="M105.217 9.2182H112.775L121.077 30.3096H115.568L114.33 27.2208H103.523L102.323 30.3096H96.7425L105.217 9.2182ZM108.533 14.2152L105.423 22.3395H112.31L109.349 14.2152H108.533Z" fill="black"/>
<path d="M143.18 12.0805L140.67 16.2005C138.573 14.5477 136.02 13.7237 133.007 13.7237C130.3 13.7237 128.947 14.2971 128.947 15.4391C128.947 15.8439 129.105 16.1186 129.422 16.2583C129.739 16.398 130.252 16.5185 130.957 16.6197L136.644 17.304C141.28 17.9159 143.602 20.0892 143.602 23.8237C143.602 26.1366 142.652 27.8858 140.761 29.0664C138.866 30.247 136.375 30.8397 133.29 30.8397C131.217 30.8397 129.374 30.565 127.761 30.0205C126.149 29.476 124.551 28.5508 122.977 27.2546L125.415 22.9081C128.073 24.9416 130.852 25.9583 133.75 25.9583C135.161 25.9583 136.318 25.7849 137.21 25.4427C138.103 25.1006 138.554 24.585 138.554 23.8959C138.554 23.4912 138.467 23.1972 138.29 23.0189C138.112 22.8406 137.728 22.725 137.143 22.6768L130.434 21.8384C128.27 21.5589 126.624 20.918 125.506 19.9109C124.388 18.9086 123.827 17.4244 123.827 15.468C123.827 13.2563 124.686 11.5793 126.403 10.4325C128.121 9.29046 130.324 8.71704 133.007 8.71704C137.105 8.72186 140.497 9.8398 143.18 12.0805Z" fill="black"/>
<path d="M146.64 9.2182H164.616V14.2923H151.832V17.0775H163.311V22.1516H151.832V25.1247H165.076V30.3096H146.64V9.2182Z" fill="black"/>
<path d="M167.586 9.2182H188V14.2537H180.408V30.3096H175.183V14.2537H167.591V9.2182H167.586Z" fill="black"/>
</g>
<defs>
<filter id="filter0_d_23_1135" x="48.311" y="8.71704" width="143.689" height="30.1226" filterUnits="userSpaceOnUse" color-interpolation-filters="sRGB">
<feFlood flood-opacity="0" result="BackgroundImageFix"/>
<feColorMatrix in="SourceAlpha" type="matrix" values="0 0 0 0 0 0 0 0 0 0 0 0 0 0 0 0 0 0 127 0" result="hardAlpha"/>
<feOffset dy="4"/>
<feGaussianBlur stdDeviation="2"/>
<feComposite in2="hardAlpha" operator="out"/>
<feColorMatrix type="matrix" values="0 0 0 0 0 0 0 0 0 0 0 0 0 0 0 0 0 0 0.25 0"/>
<feBlend mode="normal" in2="BackgroundImageFix" result="effect1_dropShadow_23_1135"/>
<feBlend mode="normal" in="SourceGraphic" in2="effect1_dropShadow_23_1135" result="shape"/>
</filter>
</defs>
</svg>
